<?xml version="1.0" encoding="utf-8"?>
<!-- Uploaded to: SVG Repo, www.svgrepo.com, Generator: SVG Repo Mixer Tools -->
<svg fill="#000000" width="800px" height="800px" viewBox="0 0 32 32" version="1.1" xmlns="http://www.w3.org/2000/svg">
<title>clipboard-list-check</title>
<path d="M26 4.75h-2c-0.69 0-1.25 0.56-1.25 1.25s0.56 1.25 1.25 1.25v0h0.75v21.5h-17.5v-21.5h0.75c0.69 0 1.25-0.56 1.25-1.25s-0.56-1.25-1.25-1.25v0h-2c-0.69 0-1.25 0.56-1.25 1.25v0 24c0 0.69 0.56 1.25 1.25 1.25h20c0.69-0.001 1.249-0.56 1.25-1.25v-24c-0-0.69-0.56-1.25-1.25-1.25h-0zM23.1 14.8h-7.133c-0.69 0-1.25 0.56-1.25 1.25s0.56 1.25 1.25 1.25h7.133c0.69 0 1.25-0.56 1.25-1.25s-0.56-1.25-1.25-1.25v0zM13.849 13.473c-0.222-0.203-0.518-0.328-0.844-0.328-0.364 0-0.693 0.156-0.921 0.405l-0.001 0.001-2.149 2.349-0.086-0.085c-0.226-0.224-0.537-0.363-0.881-0.363-0.691 0-1.251 0.56-1.251 1.251 0 0.347 0.141 0.661 0.37 0.888l1.010 1.002 0.022 0.015 0.015 0.021c0.076 0.062 0.162 0.116 0.255 0.159l0.008 0.003c0.035 0.025 0.075 0.050 0.117 0.073l0.007 0.003c0.135 0.056 0.292 0.089 0.457 0.090h0c0.070-0.009 0.132-0.022 0.192-0.040l-0.009 0.002c0.109-0.009 0.209-0.031 0.305-0.064l-0.009 0.003c0.067-0.037 0.125-0.077 0.18-0.12l-0.003 0.002c0.088-0.045 0.164-0.097 0.233-0.156l-0.002 0.001 0.013-0.020 0.021-0.015 3.028-3.311c0.204-0.221 0.328-0.518 0.328-0.844 0-0.365-0.156-0.693-0.406-0.921l-0.001-0.001zM16.033 21.645c-0.69 0-1.25 0.56-1.25 1.25s0.56 1.25 1.25 1.25v0h7.133c0.69 0 1.25-0.56 1.25-1.25s-0.56-1.25-1.25-1.25v0zM7.783 22.895c0 0 0 0 0 0 0 1.433 1.161 2.594 2.594 2.594s2.594-1.161 2.594-2.594c0-1.433-1.161-2.594-2.594-2.594-0 0-0 0-0.001 0h0c-1.432 0.002-2.592 1.162-2.594 2.594v0zM11 9.249h10c0.69 0 1.25-0.56 1.25-1.25s-0.56-1.25-1.25-1.25v0h-1.137c0.242-0.513 0.385-1.114 0.387-1.748v-0.001c0-2.347-1.903-4.25-4.25-4.25s-4.25 1.903-4.25 4.25v0c0.002 0.635 0.145 1.236 0.398 1.775l-0.011-0.026h-1.137c-0.69 0-1.25 0.56-1.25 1.25s0.56 1.25 1.25 1.25v0zM14.25 5c0-0 0-0.001 0-0.001 0-0.966 0.784-1.75 1.75-1.75s1.75 0.784 1.75 1.75c0 0.966-0.784 1.75-1.75 1.75v0c-0.966-0.001-1.748-0.783-1.75-1.749v-0z"></path>
</svg>